<?xml version="1.0" standalone="no"?>
<!DOCTYPE svg PUBLIC "-//W3C//DTD SVG 20010904//EN"
 "http://www.w3.org/TR/2001/REC-SVG-20010904/DTD/svg10.dtd">
<svg version="1.0" xmlns="http://www.w3.org/2000/svg"
 width="1280.000000pt" height="1280.000000pt" viewBox="0 0 1280.000000 1280.000000"
 preserveAspectRatio="xMidYMid meet">
<metadata>
Created by potrace 1.14, written by Peter Selinger 2001-2017
</metadata>
<g transform="translate(0.000000,1280.000000) scale(0.100000,-0.100000)"
fill="#000000" stroke="none">
<path d="M2437 12780 c10 -11 18 -20 19 -20 1 0 0 9 -3 20 -3 11 -12 20 -19
20 -11 0 -10 -5 3 -20z"/>
<path d="M9451 12730 c0 -41 4 -97 9 -125 6 -42 8 -31 9 60 0 61 -4 117 -9
125 -7 10 -9 -8 -9 -60z"/>
<path d="M2500 12693 c0 -4 5 -15 10 -23 8 -13 10 -13 10 2 0 9 -4 20 -10 23
-5 3 -10 3 -10 -2z"/>
<path d="M2556 12635 c4 -8 11 -15 16 -15 6 0 5 6 -2 15 -7 8 -14 15 -16 15
-2 0 -1 -7 2 -15z"/>
<path d="M2590 12610 c0 -5 7 -10 15 -10 8 0 15 5 15 10 0 6 -7 10 -15 10 -8
0 -15 -4 -15 -10z"/>
<path d="M2740 12521 c0 -5 5 -13 10 -16 6 -3 10 -2 10 4 0 5 -4 13 -10 16 -5
3 -10 2 -10 -4z"/>
<path d="M4270 11494 c0 -6 60 -188 87 -264 11 -32 18 -105 23 -255 5 -131 14
-231 23 -266 8 -31 18 -82 22 -113 4 -31 11 -56 15 -56 29 0 37 162 39 789 0
67 -20 118 -51 130 -91 34 -158 49 -158 35z"/>
<path d="M9406 11275 c-44 -33 -152 -52 -333 -60 -102 -5 -208 -13 -488 -36
-66 -5 -174 -14 -240 -19 -66 -5 -152 -12 -191 -16 -67 -6 -73 -5 -142 31 -40
20 -78 46 -86 57 -13 19 -14 18 -34 -10 -54 -75 -73 -239 -41 -338 9 -27 15
-67 13 -87 -3 -21 0 -37 6 -37 5 0 10 -7 10 -15 0 -8 5 -15 10 -15 6 0 10 -8
9 -17 0 -11 -3 -13 -6 -5 -2 6 -9 12 -15 12 -5 0 -22 12 -37 28 -40 40 -70 61
-121 85 -25 12 -51 28 -58 35 -7 6 -25 12 -39 12 l-25 0 23 -21 24 -20 -40 5
c-27 4 -46 14 -58 31 -10 14 -24 25 -30 25 -7 0 -24 6 -38 14 -40 20 -96 29
-101 15 -3 -9 -20 -8 -69 4 -61 15 -136 23 -319 33 -67 4 -82 2 -72 -8 18 -18
15 -28 -8 -28 -11 0 -23 7 -26 15 -4 8 -11 15 -17 15 -5 0 -3 -8 5 -17 21 -24
12 -43 -20 -43 l-26 0 22 -16 c15 -10 34 -14 55 -10 17 3 26 3 20 0 -19 -8
-16 -24 10 -45 12 -10 17 -18 10 -19 -17 0 -63 22 -63 30 0 4 -19 12 -42 18
-24 6 -61 20 -83 31 -45 22 -55 13 -30 -25 20 -31 6 -56 -19 -34 -21 17 -53 5
-37 -14 10 -11 7 -14 -12 -12 -15 0 -23 6 -20 13 5 13 -74 93 -92 93 -11 0 -5
-29 8 -33 7 -3 5 -6 -5 -6 -10 -1 -18 3 -18 9 0 5 -10 12 -23 15 -13 4 -29 20
-37 38 -7 17 -15 26 -18 19 -5 -15 -34 -16 -50 0 -6 6 -30 11 -53 10 -23 -1
-48 3 -55 9 -17 14 -33 4 -29 -19 2 -9 4 -23 4 -29 1 -7 17 -31 37 -52 30 -33
35 -46 32 -78 -3 -35 -5 -38 -33 -38 -26 0 -30 3 -27 26 1 15 -5 32 -14 40
-15 12 -16 11 -10 -9 9 -27 1 -27 -44 -4 -19 10 -55 24 -80 31 -47 14 -66 21
-114 48 -23 12 -33 13 -48 4 -24 -15 -43 -4 -27 15 9 11 5 17 -25 29 -20 8
-36 22 -36 31 0 10 -7 14 -22 12 -13 -2 -23 -10 -23 -18 0 -8 -9 -16 -20 -18
-34 -6 -38 -19 -14 -41 13 -11 17 -21 10 -21 -22 0 -51 20 -51 35 0 18 -55 21
-66 4 -3 -6 -17 -8 -30 -5 -14 4 -33 2 -44 -4 -16 -9 -20 -8 -20 5 0 8 -7 15
-15 15 -8 0 -15 -4 -15 -10 0 -5 -11 -10 -25 -10 -29 0 -34 -18 -7 -26 9 -3
29 -12 45 -20 15 -9 36 -13 46 -9 11 3 22 1 25 -4 8 -13 -29 -24 -55 -16 -15
5 -22 2 -26 -14 -6 -22 -36 -36 -54 -25 -6 3 -14 2 -18 -5 -4 -6 -29 -14 -56
-17 -40 -6 -50 -4 -61 11 -15 21 -114 33 -114 14 0 -5 5 -7 10 -4 13 8 13 -1
-1 -26 -8 -16 -19 -20 -52 -17 -33 2 -42 -1 -45 -15 -2 -9 -12 -17 -23 -17
-10 0 -19 -4 -19 -9 0 -18 -32 -41 -56 -41 -16 0 -28 -8 -35 -24 -9 -19 -17
-22 -44 -19 -33 3 -79 -20 -120 -60 -9 -9 -21 -20 -28 -24 -18 -11 -49 -63
-39 -63 5 0 26 14 47 30 40 31 59 37 70 20 4 -6 15 -8 26 -5 13 4 19 2 19 -9
0 -8 -13 -17 -32 -21 -45 -9 -111 -40 -127 -59 -8 -9 -19 -16 -26 -16 -7 0
-31 -10 -54 -22 -39 -20 -75 -17 -38 3 9 6 17 17 17 24 0 9 10 15 25 15 34 0
32 13 -4 27 -24 9 -29 8 -24 -3 4 -10 0 -12 -13 -7 -14 5 -16 3 -11 -11 10
-26 -171 -204 -215 -213 -18 -3 -40 -11 -48 -18 -8 -7 -23 -15 -32 -18 -24 -8
-44 -47 -24 -47 8 0 18 5 21 10 3 6 14 10 23 9 14 0 14 -2 -3 -10 -18 -8 -17
-9 5 -5 14 2 32 6 41 10 10 5 16 2 16 -9 0 -13 -9 -16 -41 -14 -51 3 -110 -30
-128 -71 -7 -16 -20 -31 -30 -33 -10 -3 -18 -12 -18 -21 0 -9 -4 -16 -10 -16
-5 0 -10 -7 -10 -15 0 -8 -7 -15 -15 -15 -8 0 -15 -7 -15 -15 0 -8 5 -15 10
-15 6 0 10 -5 10 -11 0 -6 -9 -8 -20 -4 -15 5 -20 2 -21 -12 -2 -31 -4 -37
-15 -58 -6 -11 -14 -46 -18 -78 -3 -32 -13 -72 -21 -87 -8 -16 -15 -38 -15
-49 0 -12 -14 -50 -30 -84 -17 -35 -30 -76 -30 -90 0 -14 -4 -28 -9 -31 -8 -5
-14 -54 -27 -196 -3 -34 -25 -102 -57 -180 l-52 -125 2 -166 c1 -153 3 -171
27 -231 14 -35 26 -68 26 -72 0 -4 9 -27 20 -50 11 -24 29 -86 40 -137 12 -51
25 -98 29 -104 5 -5 11 -23 15 -40 4 -16 14 -38 23 -47 20 -23 13 -50 -15 -55
-12 -1 -33 -10 -45 -18 -18 -12 -66 -14 -257 -13 -225 1 -334 -9 -366 -34 -7
-5 -25 -8 -40 -8 -16 0 -99 -4 -184 -10 -275 -17 -500 -19 -685 -6 -237 17
-308 15 -485 -18 -47 -8 -125 -18 -175 -21 -49 -2 -126 -8 -170 -12 -44 -4
-273 -8 -510 -9 -404 -2 -711 -13 -794 -29 -40 -8 -70 -10 -248 -13 l-123 -2
0 -3920 0 -3920 166 0 165 0 -2 113 c-3 123 8 254 22 263 24 15 42 -109 31
-221 -4 -44 -6 -97 -4 -117 l3 -38 6210 0 6209 0 0 4239 0 4239 -77 4 c-97 5
-628 0 -703 -7 -30 -3 -122 -7 -205 -10 -180 -6 -244 -12 -350 -30 -55 -9
-228 -15 -550 -20 -258 -4 -517 -11 -575 -16 -310 -28 -443 -39 -620 -49 -107
-6 -249 -15 -315 -20 -199 -16 -590 -28 -600 -18 -2 2 2 32 10 68 25 124 28
229 10 376 -10 76 -20 141 -24 144 -3 3 -7 14 -8 25 -14 122 -45 269 -69 322
-8 17 -15 42 -15 55 -1 16 -3 18 -6 6 -10 -39 -23 -14 -24 45 l-1 62 -12 -35
-13 -35 -7 42 c-4 23 -16 52 -27 64 -10 12 -19 37 -19 56 0 23 -5 33 -15 33
-9 0 -20 11 -25 25 -13 34 -17 31 -13 -7 4 -32 3 -32 -19 12 -13 25 -31 56
-41 70 l-19 25 7 -25 c4 -14 14 -32 21 -41 16 -18 18 -39 4 -39 -5 0 -10 7
-10 16 0 9 -9 27 -20 41 -12 16 -18 34 -14 45 4 12 1 18 -8 16 -8 -2 -12 5
-10 17 2 17 1 17 -8 5 -9 -13 -12 -12 -25 4 -16 22 -20 10 -5 -14 6 -10 3 -20
-10 -32 -25 -23 -34 -23 -27 2 3 13 0 20 -8 20 -8 0 -17 9 -20 20 -3 11 -11
20 -16 20 -5 0 -9 5 -9 11 0 5 5 7 10 4 6 -4 10 5 10 19 0 14 5 26 10 26 6 0
10 16 10 35 0 25 -4 33 -14 29 -18 -7 -30 29 -19 53 5 10 8 27 7 38 0 11 -2
30 -3 43 -1 24 -31 31 -31 7 0 -8 -4 -15 -10 -15 -14 0 -13 11 5 53 8 20 15
51 14 69 0 18 3 48 7 66 10 48 -17 37 -43 -18 l-12 -25 -2 25 c-1 14 -3 32 -5
40 -1 8 -2 20 -3 26 -1 8 -20 5 -58 -7 -71 -24 -71 -24 -44 5 19 20 22 33 20
75 -3 43 -2 49 8 34 7 -9 16 -31 19 -50 7 -36 15 -41 34 -18 10 13 11 24 1 56
-16 52 -9 60 13 16 8 -19 22 -40 31 -47 13 -11 15 -7 15 25 0 27 -7 44 -30 67
-17 16 -36 28 -43 25 -7 -3 -21 1 -32 9 -10 8 -24 14 -29 14 -6 0 -5 -4 3 -9
8 -5 9 -11 3 -15 -6 -3 -13 -2 -17 4 -10 16 -47 12 -82 -10 -18 -11 -33 -15
-33 -9 0 5 13 18 30 27 37 21 45 40 25 62 -14 16 -14 18 0 23 8 4 21 4 29 1
11 -4 13 0 9 15 -4 15 1 23 18 29 15 6 18 11 11 16 -7 4 -10 11 -7 16 3 5 -3
11 -14 15 -24 7 -71 50 -71 65 0 6 -7 13 -15 16 -23 9 -20 127 5 182 16 36 19
56 13 118 -8 98 4 114 91 114 34 0 75 -4 93 -9 19 -6 76 -5 145 0 137 12 188
1 223 -45 19 -26 22 -39 18 -82 -3 -32 -1 -54 6 -58 6 -4 11 -16 11 -27 0 -24
19 -25 22 -1 2 31 -4 77 -12 87 -13 16 5 92 31 129 28 41 86 70 138 70 111 -2
309 -23 330 -35 37 -21 70 -61 71 -84 0 -11 9 -37 20 -58 11 -20 20 -46 20
-57 0 -11 5 -20 10 -20 20 0 10 -20 -17 -34 l-28 -15 32 -7 c17 -3 41 -15 52
-25 22 -20 51 -25 51 -9 0 18 22 10 42 -15 11 -15 28 -24 41 -22 31 3 38 50
46 312 l6 221 -35 1 c-19 1 -44 -5 -54 -12z m-3532 -351 c4 -9 5 -19 2 -21 -6
-6 -46 20 -46 29 0 15 38 8 44 -8z m1606 -44 c13 -8 13 -10 -2 -10 -9 0 -20 5
-23 10 -8 13 5 13 25 0z m-97 -25 c48 -4 87 -10 87 -15 0 -4 -12 -6 -27 -5
-16 2 -65 6 -110 10 -44 3 -94 10 -110 15 -23 8 -18 9 22 5 28 -2 89 -7 138
-10z m-1356 -1 c-3 -3 -12 -4 -19 -1 -8 3 -5 6 6 6 11 1 17 -2 13 -5z m578
-24 c12 -19 -12 -10 -31 11 -19 22 -19 22 3 10 12 -6 25 -16 28 -21z m508 23
c-7 -2 -19 -2 -25 0 -7 3 -2 5 12 5 14 0 19 -2 13 -5z m-1718 -103 c3 -5 -3
-10 -14 -10 -12 0 -21 5 -21 10 0 6 6 10 14 10 8 0 18 -4 21 -10z m97 -72 c-7
-7 -12 -8 -12 -2 0 14 12 26 19 19 2 -3 -1 -11 -7 -17z m2548 -90 c49 -47 65
-68 52 -68 -14 0 -142 119 -142 132 0 12 43 -19 90 -64z m-1064 -15 c-7 -7
-26 7 -26 19 0 6 6 6 15 -2 9 -7 13 -15 11 -17z m964 -34 c-18 -11 -147 -12
-153 -1 -3 4 34 8 81 9 56 1 81 -2 72 -8z m20 -38 c0 -6 -4 -13 -10 -16 -5 -3
-10 1 -10 9 0 9 5 16 10 16 6 0 10 -4 10 -9z m50 -60 c0 -4 -22 -13 -50 -18
-54 -11 -68 -1 -22 15 34 13 72 15 72 3z m-3080 -33 c-14 -5 -38 -7 -55 -6
l-30 4 35 10 c19 6 44 8 54 6 18 -5 17 -6 -4 -14z m1178 -4 c12 -4 22 -13 22
-20 0 -8 -1 -14 -2 -14 -2 0 -30 9 -63 20 l-60 19 40 0 c22 1 50 -2 63 -5z
m525 -1 c-7 -2 -21 -2 -30 0 -10 3 -4 5 12 5 17 0 24 -2 18 -5z m54 -9 c-3 -3
-12 -4 -19 -1 -8 3 -5 6 6 6 11 1 17 -2 13 -5z m66 -11 c-7 -2 -21 -2 -30 0
-10 3 -4 5 12 5 17 0 24 -2 18 -5z m51 -12 c4 -5 -3 -7 -14 -4 -23 6 -26 13
-6 13 8 0 17 -4 20 -9z m-1939 -22 c-4 -5 -13 -9 -22 -9 -13 0 -13 3 -3 15 13
15 35 11 25 -6z m-195 -18 c0 -24 -13 -33 -34 -25 -12 5 -13 9 -3 25 15 25 37
24 37 0z m1230 12 c0 -5 -5 -15 -10 -23 -8 -12 -10 -11 -10 8 0 12 5 22 10 22
6 0 10 -3 10 -7z m2165 -47 c-10 -14 -31 -32 -48 -41 -39 -20 -47 -19 -22 3
11 9 34 35 50 56 21 28 31 35 33 23 2 -9 -4 -27 -13 -41z m-2065 24 c0 6 7 10
16 10 8 0 13 -4 10 -9 -3 -5 17 -11 45 -15 54 -7 58 -26 6 -26 -47 0 -77 -10
-77 -26 0 -8 -4 -14 -10 -14 -5 0 -10 6 -10 14 0 21 -47 26 -65 6 -15 -16 -13
-18 26 -23 22 -3 65 -3 95 0 63 7 109 -10 98 -36 -8 -20 -12 -42 -13 -63 -1
-10 -7 -18 -15 -18 -24 0 -28 -18 -11 -44 12 -18 29 -27 59 -31 52 -8 76 -21
59 -33 -7 -4 -10 -17 -6 -31 5 -19 11 -22 34 -19 16 3 30 2 30 -1 1 -3 3 -27
4 -52 1 -26 5 -52 9 -58 11 -17 26 -13 26 7 0 14 2 15 10 2 6 -10 4 -20 -6
-31 -12 -14 -12 -20 0 -43 10 -19 15 -23 19 -13 3 8 0 20 -6 26 -8 8 -8 14 1
23 6 6 14 10 16 7 11 -11 8 -96 -3 -117 -10 -20 -20 -23 -54 -21 -65 3 -75 -1
-41 -15 17 -8 40 -27 51 -42 21 -29 23 -34 23 -55 0 -5 5 -7 10 -4 6 3 15 3
22 -1 8 -5 2 -14 -16 -29 -27 -21 -27 -22 -7 -28 12 -3 19 -1 15 4 -3 5 2 9
10 9 9 0 16 4 16 8 0 5 14 6 31 4 21 -3 30 -1 25 6 -11 18 6 42 30 42 13 0 24
-5 24 -11 0 -5 5 -7 11 -4 6 4 16 -1 24 -11 10 -15 16 -16 25 -7 18 17 3 32
-41 39 -21 4 -39 10 -39 15 0 5 0 12 0 17 0 14 45 9 57 -7 10 -14 16 -14 45
-3 64 26 87 31 82 19 -5 -14 93 -17 114 -4 15 10 42 -9 42 -29 0 -7 -8 -18
-17 -23 -16 -9 -15 -10 5 -11 12 0 25 7 28 15 9 22 32 18 40 -7 4 -13 17 -33
30 -45 13 -12 24 -29 24 -38 0 -9 4 -13 10 -10 5 3 9 21 7 38 -2 28 1 32 20
29 12 -2 23 1 26 5 7 12 -15 38 -33 38 -9 0 -16 11 -18 26 -2 20 2 28 17 32
12 3 21 13 21 25 0 24 25 48 35 32 3 -5 4 -19 0 -29 -6 -20 19 -49 29 -32 4 5
2 12 -3 15 -4 3 2 27 15 53 13 25 24 57 24 70 0 24 7 28 25 15 19 -14 24 -55
12 -112 -6 -30 -6 -33 6 -20 8 8 19 42 26 74 12 63 25 86 48 86 8 0 12 4 9 9
-8 12 76 22 91 9 7 -5 26 -7 43 -3 16 4 30 2 30 -3 0 -5 6 -9 13 -10 43 -4 77
-25 77 -48 0 -18 14 -18 30 1 18 21 43 19 59 -6 11 -19 11 -21 -3 -16 -24 9
-9 -17 17 -28 18 -8 21 -17 19 -52 -4 -44 -1 -46 44 -43 4 1 16 -25 26 -57 11
-32 26 -65 34 -74 8 -8 14 -20 14 -26 0 -6 7 -14 16 -17 9 -4 14 -13 10 -21
-3 -9 1 -18 8 -21 15 -6 20 -64 6 -64 -4 0 -5 -11 -2 -25 2 -14 9 -25 14 -25
5 0 8 -8 6 -17 -2 -10 2 -17 9 -16 7 2 10 -11 8 -40 -6 -63 -7 -65 -16 -22 -6
31 -7 23 -5 -37 1 -68 -1 -78 -16 -78 -21 0 -27 -22 -25 -83 2 -30 8 -52 17
-57 12 -8 11 -11 -7 -16 -28 -8 -30 -34 -4 -34 30 0 35 -19 12 -44 l-22 -23
26 -17 c14 -9 23 -21 20 -26 -8 -12 13 -52 34 -64 13 -8 13 -10 -3 -15 -16 -6
-16 -8 3 -30 28 -33 28 -55 -1 -48 -23 6 -23 6 -3 -9 11 -8 32 -18 48 -21 20
-4 27 -11 27 -29 0 -13 -5 -24 -11 -24 -5 0 -7 -5 -3 -12 6 -9 9 -9 12 0 9 29
30 8 41 -43 7 -30 19 -61 27 -69 18 -19 18 -30 -2 -47 -13 -10 -17 -10 -24 2
-8 11 -12 10 -26 -9 l-16 -23 -29 41 c-16 22 -34 40 -40 40 -12 0 -38 29 -39
42 0 4 8 4 17 1 13 -5 13 -3 -3 13 -26 26 -91 74 -99 74 -4 0 -43 25 -87 57
-65 45 -84 54 -97 46 -10 -6 -29 -9 -42 -6 -16 3 -30 -1 -38 -11 -8 -10 -31
-17 -60 -17 -41 -2 -43 -2 -16 -9 23 -6 19 -7 -15 -3 -91 8 -190 9 -178 1 14
-8 -7 -12 -50 -8 -13 1 -30 -4 -38 -11 -13 -10 -17 -10 -24 0 -4 8 -13 10 -20
6 -9 -6 -9 -10 1 -17 10 -6 7 -7 -9 -3 -13 4 -28 2 -35 -3 -7 -6 -28 -12 -47
-15 -65 -10 -105 -20 -117 -30 -7 -5 -36 -11 -65 -12 -89 -5 -138 -15 -160
-33 -76 -60 -119 -133 -99 -169 6 -12 6 -48 -1 -103 -11 -94 1 -193 32 -265
21 -46 152 -185 175 -185 9 0 33 -11 53 -25 41 -28 75 -31 112 -11 15 9 32 11
45 6 11 -4 75 -13 143 -20 184 -18 397 3 438 44 7 8 27 17 44 21 16 4 30 11
30 16 0 5 18 9 40 9 22 0 40 3 40 8 0 4 25 13 56 20 33 8 74 27 101 48 24 19
53 34 64 34 10 0 19 5 19 10 0 20 45 55 85 66 36 9 40 13 37 40 -2 16 -8 30
-13 32 -5 2 -6 14 -3 27 6 26 -14 45 -27 24 -4 -7 -11 -10 -16 -6 -4 5 -1 12
7 17 12 8 13 13 3 29 -8 13 -9 22 -3 26 16 10 12 25 -5 19 -21 -8 -19 13 3 25
14 8 15 13 5 30 -7 12 -13 32 -13 46 0 19 -5 24 -21 22 -12 -1 -24 4 -26 11
-3 7 -1 12 4 11 4 -1 20 -1 36 0 20 1 27 6 27 21 0 16 7 20 31 20 l31 0 -23
-19 -24 -20 33 -11 c17 -7 32 -17 33 -23 1 -7 7 8 13 33 l13 45 16 -39 c10
-21 17 -48 17 -60 0 -34 12 -66 21 -60 8 5 10 -2 13 -48 1 -9 11 -27 24 -41
17 -18 20 -26 10 -30 -10 -3 -10 -9 -2 -23 6 -11 11 -44 13 -74 1 -30 6 -71
11 -90 5 -20 6 -51 1 -71 -5 -21 -5 -43 0 -50 5 -8 9 -58 9 -111 0 -74 -5
-109 -20 -147 -11 -28 -17 -58 -14 -66 4 -9 0 -23 -9 -33 -8 -9 -16 -37 -18
-62 -1 -25 -5 -49 -8 -55 -18 -32 -29 -80 -21 -90 7 -8 -3 -26 -30 -55 -22
-24 -40 -53 -40 -64 -1 -21 -1 -21 -15 -2 -8 11 -16 18 -18 15 -28 -35 -47
-71 -47 -88 0 -12 -4 -21 -9 -21 -6 0 -16 -12 -23 -27 -7 -16 -27 -35 -43 -43
-17 -8 -40 -25 -53 -38 -12 -12 -26 -22 -32 -22 -5 0 -10 -5 -10 -11 0 -6 -16
-25 -35 -43 -19 -19 -35 -38 -35 -45 0 -6 -4 -11 -9 -11 -5 0 -12 -10 -16 -22
-4 -14 -8 -18 -12 -10 -8 21 -23 13 -23 -12 0 -17 -9 -29 -30 -40 -20 -9 -30
-11 -30 -3 0 6 -7 2 -15 -9 -12 -15 -16 -16 -24 -5 -6 10 -10 10 -16 1 -4 -7
-2 -16 5 -20 10 -6 3 -19 -26 -50 -36 -38 -42 -41 -77 -36 -35 6 -37 5 -32
-17 6 -22 4 -23 -25 -19 -30 4 -31 3 -20 -17 10 -20 9 -22 -11 -19 -17 2 -25
-3 -30 -22 -7 -24 -7 -24 -8 4 -1 30 -1 30 -20 9 -12 -13 -17 -29 -14 -45 3
-14 0 -29 -7 -33 -18 -11 -26 4 -12 25 9 14 9 20 -1 24 -9 3 -9 7 2 14 7 5 10
15 6 21 -5 9 -11 7 -19 -5 -17 -22 -29 -4 -20 31 7 27 44 36 44 10 0 -18 12
-19 28 -3 9 9 12 9 12 -2 0 -29 23 9 24 40 1 16 0 30 -1 30 -1 0 -9 3 -19 7
-13 5 -16 3 -11 -10 5 -13 -2 -18 -29 -23 -39 -7 -64 8 -64 37 0 14 -9 21 -30
26 -17 3 -30 12 -30 20 0 12 9 14 43 9 41 -5 41 -5 10 6 -18 6 -46 23 -63 38
-17 16 -46 31 -65 34 -18 4 -38 13 -45 21 -7 8 -23 15 -36 15 -15 0 -24 6 -24
15 0 17 -16 20 -25 5 -12 -20 -25 1 -25 41 0 21 -4 39 -10 39 -5 0 -7 7 -4 15
4 8 1 21 -5 29 -6 8 -12 39 -13 70 -2 55 -9 69 -25 42 -13 -21 -45 -34 -104
-42 -30 -4 -58 -10 -64 -14 -16 -10 -65 -11 -65 0 0 6 16 10 35 10 19 0 35 5
35 10 0 6 9 10 19 10 11 0 23 5 26 10 4 6 14 9 23 8 13 -2 16 3 14 22 -3 34
-21 45 -103 65 -64 16 -80 16 -169 1 -3 -1 -21 -8 -40 -16 -48 -19 -75 -50
-95 -109 -9 -28 -20 -51 -24 -51 -4 0 -11 -15 -17 -32 -6 -21 -15 -32 -24 -30
-7 2 -25 -2 -37 -9 -18 -10 -31 -10 -54 -2 -27 11 -29 10 -29 -13 0 -14 -7
-27 -15 -30 -11 -5 -13 -17 -9 -52 9 -79 18 -88 91 -100 67 -11 78 -10 128 15
30 15 33 14 82 -16 27 -17 60 -31 71 -31 11 0 23 -4 27 -9 9 -15 -17 -26 -65
-27 -25 -1 -65 -4 -90 -7 -25 -3 -94 -11 -155 -17 -71 -8 -114 -17 -121 -26
-12 -16 -70 -19 -79 -5 -8 15 -174 -2 -209 -21 -10 -5 -32 -11 -50 -13 -17 -1
-44 -6 -60 -10 -21 -6 -27 -5 -22 4 5 7 0 11 -13 11 -12 0 -21 5 -21 10 0 6
-6 10 -13 10 -7 0 -26 14 -42 30 -16 17 -37 30 -47 30 -25 0 -68 -29 -68 -45
0 -7 -7 -15 -14 -18 -18 -7 -39 -78 -30 -101 3 -9 16 -16 29 -16 18 0 22 4 18
20 -6 21 11 28 23 9 4 -7 24 -9 58 -5 28 4 71 8 96 10 25 1 56 5 70 9 14 4 57
9 95 12 39 4 86 9 105 12 76 11 236 -1 300 -23 8 -3 44 -8 79 -10 37 -2 80
-12 102 -23 22 -12 39 -16 41 -10 2 7 18 7 46 0 52 -11 60 -17 44 -33 -7 -7
-12 -20 -12 -29 0 -10 -10 -20 -22 -24 -13 -3 -32 -10 -43 -14 -11 -5 -33 -14
-48 -20 -15 -6 -39 -11 -52 -11 -13 0 -26 -4 -29 -9 -3 -4 -18 -7 -33 -5 -60
9 -311 9 -306 0 7 -11 -17 -26 -43 -26 -12 0 -41 9 -65 20 -88 40 -92 22 -14
-65 11 -12 31 -26 44 -30 23 -7 23 -9 7 -20 -15 -12 -15 -14 -1 -28 8 -9 15
-21 15 -27 0 -7 7 -27 16 -46 13 -26 22 -34 43 -34 15 0 37 -7 49 -16 12 -8
26 -13 32 -9 5 3 14 -3 19 -14 14 -25 14 -27 -5 -45 -14 -14 -12 -15 15 -10
27 6 32 3 41 -21 6 -15 8 -30 5 -33 -3 -4 -8 4 -12 16 -3 12 -12 22 -19 22
-10 0 -13 -7 -8 -25 5 -20 3 -24 -10 -19 -12 4 -16 0 -16 -15 0 -28 -28 -27
-39 1 -5 13 -10 17 -15 10 -9 -15 15 -52 34 -52 8 0 -1 -9 -20 -19 l-35 -20
-23 26 c-15 17 -34 26 -53 26 -16 0 -29 4 -29 8 0 12 -38 17 -49 6 -6 -6 -11
-20 -11 -31 0 -27 -17 -8 -22 24 -2 20 -8 24 -27 22 -19 -2 -22 2 -18 18 3 11
-1 27 -10 35 -16 17 -31 87 -17 84 5 -1 17 1 26 5 26 12 11 33 -20 29 -22 -4
-29 1 -40 26 -8 17 -18 31 -24 31 -5 0 -16 7 -24 15 -9 8 -24 15 -35 15 -15 0
-19 6 -17 22 2 11 -3 23 -11 26 -11 4 -12 -2 -7 -24 4 -19 3 -24 -3 -15 -7 11
-10 10 -15 -5 -3 -10 -4 -3 -3 18 3 32 -1 38 -30 52 -18 9 -33 20 -33 26 0 5
-7 10 -15 10 -9 0 -18 7 -21 15 -4 8 -12 15 -20 15 -8 0 -19 9 -26 20 -7 11
-18 20 -25 20 -7 0 -10 6 -7 13 3 8 -6 18 -21 25 -23 11 -25 10 -26 -16 0 -20
-2 -23 -7 -10 -5 12 -12 14 -21 9 -7 -5 -11 -13 -8 -18 3 -5 -10 -13 -29 -19
-27 -9 -34 -9 -30 1 8 21 -36 49 -76 49 -35 1 -38 3 -38 29 0 26 -3 29 -25 25
-13 -3 -24 -2 -23 1 2 21 -6 27 -37 28 -19 1 -38 -3 -41 -8 -3 -5 -10 -7 -15
-3 -5 3 -7 10 -4 15 4 5 -5 13 -19 19 -28 10 -33 29 -14 48 21 21 -2 27 -32 8
-30 -17 -30 -17 -55 10 -16 17 -23 34 -19 46 4 13 0 18 -15 18 -12 0 -21 -4
-21 -10 0 -16 -17 -11 -24 7 -4 9 -1 20 5 24 17 10 2 28 -21 24 -11 -2 -22 1
-26 6 -3 5 -15 7 -27 4 -17 -5 -19 -4 -7 4 13 9 13 11 -1 11 -15 0 -35 42 -31
63 1 4 -10 7 -25 7 -29 0 -73 41 -73 68 0 8 -6 12 -13 9 -9 -3 -12 3 -9 22 2
14 -3 35 -11 46 -13 16 -17 17 -31 6 -18 -16 -21 -8 -5 20 12 24 3 59 -17 59
-18 0 -18 5 3 36 14 22 15 33 4 87 -50 241 -62 433 -41 658 20 229 97 816 116
894 18 73 31 227 27 315 -5 125 -2 190 11 182 5 -3 6 2 3 12 -4 10 5 43 23 81
17 35 30 80 30 100 0 36 28 90 71 135 14 14 31 39 39 55 22 43 89 133 137 181
22 23 45 48 49 55 5 8 30 31 56 52 27 21 72 67 100 102 44 53 58 64 85 64 17
1 35 6 38 11 4 6 10 8 15 5 5 -3 13 2 19 12 7 14 4 20 -20 30 -28 11 -40 33
-19 33 6 0 10 -3 10 -7 0 -11 50 -7 83 6 16 6 36 11 45 11 10 0 24 9 32 20 8
11 20 20 28 20 7 0 21 20 32 44 15 35 23 43 38 39 11 -2 23 0 26 6 4 6 16 11
27 11 10 0 19 6 19 14 0 9 -7 12 -20 9 -11 -3 -20 0 -20 6 0 6 8 11 18 11 9 0
28 3 42 5 14 3 19 3 13 -1 -7 -3 -13 -10 -13 -15 0 -16 25 -10 42 10 9 11 36
25 60 31 23 7 51 18 62 26 22 15 62 9 88 -13 14 -13 19 -12 42 8 24 21 24 23
8 35 -13 10 -6 10 31 -1 26 -8 47 -10 47 -5z m-1370 -30 c0 -5 -4 -10 -10 -10
-5 0 -10 5 -10 10 0 6 5 10 10 10 6 0 10 -4 10 -10z m115 -91 c-4 -6 -13 -8
-21 -5 -8 3 -14 1 -14 -4 0 -6 -8 -10 -17 -10 -16 1 -16 2 1 15 23 17 60 20
51 4z m-90 -31 c11 -10 -64 -30 -90 -24 -42 11 -19 31 34 31 27 0 52 -3 56 -7z
m786 -13 c0 -13 -41 -19 -41 -7 0 11 20 22 33 18 5 -1 8 -6 8 -11z m-914 -1
c-3 -3 -12 -4 -19 -1 -8 3 -5 6 6 6 11 1 17 -2 13 -5z m27 -32 c-6 -4 -13 -12
-15 -19 -2 -6 -26 -27 -53 -45 -28 -19 -58 -50 -69 -69 -19 -36 -62 -79 -78
-79 -6 0 -7 5 -4 10 3 6 2 10 -3 10 -15 0 -23 -28 -10 -32 13 -5 2 -28 -13
-28 -6 0 -7 5 -4 10 3 6 1 10 -4 10 -20 0 -11 16 39 70 28 29 50 58 50 64 0 6
5 4 10 -4 8 -13 10 -12 10 3 0 9 3 17 8 17 4 0 21 13 37 28 37 34 98 73 104
66 3 -3 1 -8 -5 -12z m290 -31 c7 -11 -48 -35 -66 -29 -7 3 -1 11 17 20 37 19
42 20 49 9z m239 -18 c-7 -2 -19 -2 -25 0 -7 3 -2 5 12 5 14 0 19 -2 13 -5z
m-436 -9 c-3 -3 -12 -4 -19 -1 -8 3 -5 6 6 6 11 1 17 -2 13 -5z m-30 -44 c33
0 28 -17 -7 -25 -16 -4 -28 -11 -27 -17 1 -6 -4 -13 -10 -15 -18 -6 -16 12 2
27 21 17 19 33 -2 22 -10 -5 -24 -7 -30 -5 -7 3 -13 0 -13 -6 0 -6 -15 -18
-32 -27 -18 -9 -36 -22 -40 -29 -11 -18 -88 -69 -94 -62 -9 9 57 87 74 87 7 0
12 6 10 12 -5 15 16 39 36 42 8 1 20 7 27 13 25 19 43 20 63 1 11 -10 30 -18
43 -18z m198 -9 c3 -5 1 -12 -5 -16 -5 -3 -10 1 -10 9 0 18 6 21 15 7z m-40
-12 c11 -16 0 -21 -30 -13 -20 5 -23 9 -13 15 18 12 36 11 43 -2z m87 -34 c0
-5 -5 -11 -11 -13 -6 -2 -11 4 -11 13 0 9 5 15 11 13 6 -2 11 -8 11 -13z
m3458 -19 c0 -3 -4 -8 -10 -11 -5 -3 -10 -1 -10 4 0 6 5 11 10 11 6 0 10 -2
10 -4z m-2006 -41 c3 -9 0 -15 -9 -15 -8 0 -15 7 -15 15 0 8 4 15 9 15 5 0 11
-7 15 -15z m1306 -16 c0 -6 -4 -7 -10 -4 -5 3 -10 11 -10 16 0 6 5 7 10 4 6
-3 10 -11 10 -16z m666 -16 c-4 -4 -11 -1 -16 7 -16 25 -11 35 7 17 9 -9 13
-20 9 -24z m-296 -1 c0 -15 -2 -15 -10 -2 -13 20 -13 33 0 25 6 -3 10 -14 10
-23z m230 -15 c0 -5 -4 -5 -10 -2 -5 3 -10 14 -10 23 0 15 2 15 10 2 5 -8 10
-19 10 -23z m-3980 -22 c-7 -9 -15 -13 -18 -10 -3 2 1 11 8 20 7 9 15 13 18
10 3 -2 -1 -11 -8 -20z m80 -25 c0 -5 -6 -10 -14 -10 -7 0 -19 -7 -26 -15 -7
-9 -15 -14 -17 -11 -3 2 4 14 14 25 18 22 43 28 43 11z m2670 -24 c0 -3 -4 -8
-10 -11 -5 -3 -10 -1 -10 4 0 6 5 11 10 11 6 0 10 -2 10 -4z m-600 -66 c0 -11
-2 -20 -4 -20 -2 0 -6 9 -9 20 -3 11 -1 20 4 20 5 0 9 -9 9 -20z m-24 -55 c14
-13 14 -15 0 -15 -9 0 -16 -4 -16 -10 0 -10 14 -14 39 -10 9 1 12 -4 7 -17 -6
-14 -5 -16 5 -5 16 15 42 16 37 0 -2 -6 -14 -15 -27 -19 -18 -7 -29 -2 -62 30
-38 36 -39 40 -22 50 23 13 22 14 39 -4z m2046 -39 c4 -17 1 -23 -9 -19 -14 5
-17 25 -6 36 9 10 10 9 15 -17z m28 14 c0 -5 -2 -10 -4 -10 -3 0 -8 5 -11 10
-3 6 -1 10 4 10 6 0 11 -4 11 -10z m-10 -90 c0 -5 -4 -10 -10 -10 -5 0 -10 5
-10 10 0 6 5 10 10 10 6 0 10 -4 10 -10z m-40 -161 c-14 -6 -65 -12 -115 -14
l-90 -4 94 9 c52 5 96 12 99 15 3 3 12 5 21 4 9 0 5 -5 -9 -10z m320 -135 c0
-8 -4 -12 -10 -9 -5 3 -10 13 -10 21 0 8 5 12 10 9 6 -3 10 -13 10 -21z m17
-96 c-3 -7 -5 -2 -5 12 0 14 2 19 5 13 2 -7 2 -19 0 -25z m-982 -117 c7 -12
-12 -24 -25 -16 -11 7 -4 25 10 25 5 0 11 -4 15 -9z m-498 -647 c-3 -3 -12 -4
-19 -1 -8 3 -5 6 6 6 11 1 17 -2 13 -5z m-38 -25 c-25 -15 -2 -19 27 -4 42 22
80 19 87 -6 4 -15 12 -20 29 -17 15 2 22 -2 20 -11 -4 -20 18 -41 44 -41 13 0
24 -5 24 -11 0 -7 10 -20 22 -30 16 -14 17 -19 6 -19 -9 0 -21 7 -28 15 -7 8
-25 15 -40 15 -14 0 -30 3 -34 7 -12 12 -80 33 -108 33 -16 0 -28 5 -28 11 0
6 -10 9 -22 6 -13 -2 -34 -1 -48 3 -24 8 -24 8 -2 9 12 1 22 6 22 12 0 8 -17
9 -55 4 -39 -4 -55 -3 -55 5 0 6 11 10 24 8 13 -1 29 2 37 9 15 12 68 22 83
15 4 -3 2 -8 -5 -13z m224 -56 c-7 -2 -19 -2 -25 0 -7 3 -2 5 12 5 14 0 19 -2
13 -5z m97 -48 c9 -18 22 -25 42 -25 15 0 28 5 28 10 0 6 5 10 11 10 5 0 7 -4
4 -10 -3 -5 0 -10 8 -10 8 0 22 -9 32 -20 14 -16 16 -23 7 -32 -9 -9 -19 -8
-43 6 -23 13 -34 15 -42 7 -16 -16 -27 -14 -21 4 6 13 -6 20 -28 16 -5 0 -8 3
-8 8 0 5 -9 13 -20 16 -31 10 -24 40 11 44 3 1 12 -10 19 -24z m195 -81 c0
-12 9 -21 25 -25 17 -5 9 -7 -25 -7 -27 0 -42 2 -32 5 13 3 15 11 11 30 -5 19
-3 24 7 21 8 -3 14 -13 14 -24z m632 0 c-3 -3 -12 -4 -19 -1 -8 3 -5 6 6 6 11
1 17 -2 13 -5z m-1394 -150 l28 -47 -38 6 c-21 4 -42 7 -48 7 -5 0 -11 18 -13
40 -2 36 0 40 20 40 17 0 31 -13 51 -46z m1600 16 c6 -23 -3 -26 -21 -8 -16
16 -15 28 2 28 7 0 16 -9 19 -20z m-4273 -65 c0 -8 -4 -15 -10 -15 -5 0 -10 7
-10 15 0 8 5 15 10 15 6 0 10 -7 10 -15z m-34 -43 c30 -20 37 -56 30 -171 -7
-124 9 -216 40 -228 7 -3 14 -13 14 -22 0 -9 11 -29 25 -45 14 -16 25 -35 25
-42 0 -7 6 -19 14 -27 11 -11 15 -45 17 -131 2 -105 -2 -138 -16 -125 -2 3 -6
21 -7 40 -1 18 -10 51 -20 71 -10 20 -18 42 -18 48 0 7 -26 67 -58 133 -88
183 -92 193 -92 252 0 70 21 255 29 255 3 0 11 -4 17 -8z m121 -284 c-3 -8 -6
-5 -6 6 -1 11 2 17 5 13 3 -3 4 -12 1 -19z m23 -39 c0 -4 -7 -6 -15 -3 -8 4
-15 10 -15 15 0 4 7 6 15 3 8 -4 15 -10 15 -15z m14 -41 c3 -13 9 -56 13 -95
7 -87 -10 -101 -26 -20 -21 110 -22 137 -7 137 7 0 16 -10 20 -22z m2096 -573
c17 -9 30 -17 30 -20 0 -2 -19 -9 -42 -16 -24 -6 -50 -16 -58 -23 -27 -22 -69
-36 -75 -26 -4 6 6 15 22 21 21 8 24 12 13 19 -11 7 -9 11 13 19 18 7 25 15
21 26 -8 20 37 20 76 0z m57 -17 c-3 -8 -6 -5 -6 6 -1 11 2 17 5 13 3 -3 4
-12 1 -19z m-2142 -88 c-20 -23 -29 -21 -19 4 3 9 13 16 22 16 13 0 12 -3 -3
-20z m3902 -15 c-4 -8 -11 -15 -17 -15 -7 0 -7 6 0 21 13 23 26 19 17 -6z
m-3937 -40 c-7 -8 -17 -15 -23 -15 -5 0 -2 9 8 20 21 23 35 19 15 -5z m116
-22 c-11 -11 -19 6 -11 24 8 17 8 17 12 0 3 -10 2 -21 -1 -24z m-101 -62 c-7
-23 -25 -29 -25 -8 0 14 21 39 28 33 2 -3 1 -14 -3 -25z m266 -82 c7 -13 7
-19 1 -15 -6 3 -13 2 -17 -4 -12 -19 -26 0 -15 21 13 24 17 24 31 -2z m1944
-50 c4 -6 5 -12 4 -14 -7 -7 -59 8 -59 16 0 13 47 11 55 -2z m83 -41 c-3 -7
-11 -13 -18 -13 -7 0 -15 6 -17 13 -3 7 4 12 17 12 13 0 20 -5 18 -12z m-2348
-79 c0 -5 -7 -9 -15 -9 -9 0 -15 9 -15 21 0 18 2 19 15 9 8 -7 15 -16 15 -21z
m2847 -91 c-3 -7 -5 -2 -5 12 0 14 2 19 5 13 2 -7 2 -19 0 -25z m18 -36 c-3
-3 -11 0 -18 7 -9 10 -8 11 6 5 10 -3 15 -9 12 -12z m-1304 -575 c-1 -12 -15
-9 -19 4 -3 6 1 10 8 8 6 -3 11 -8 11 -12z m169 -21 c0 -3 -4 -8 -10 -11 -5
-3 -10 -1 -10 4 0 6 5 11 10 11 6 0 10 -2 10 -4z m-1760 -86 c0 -5 -7 -10 -15
-10 -8 0 -15 5 -15 10 0 6 7 10 15 10 8 0 15 -4 15 -10z m3893 -197 c9 -3 17
-9 17 -14 0 -5 4 -9 10 -9 20 0 238 -150 295 -204 23 -21 147 -104 188 -126
16 -8 52 -39 80 -69 29 -30 69 -70 90 -90 42 -40 52 -91 18 -91 -13 0 -19 6
-18 18 2 37 -24 81 -51 84 -17 2 -28 10 -31 22 -4 23 -54 76 -71 76 -6 0 -8 5
-5 10 3 6 -1 10 -9 10 -9 0 -25 9 -36 20 -11 11 -43 32 -71 47 -28 16 -54 34
-56 41 -3 6 -12 12 -20 12 -9 0 -26 10 -39 23 -45 43 -69 64 -104 87 -19 13
-37 27 -40 31 -3 3 -30 21 -60 40 -30 18 -57 36 -60 40 -3 3 -19 14 -37 23
-36 18 -59 44 -27 32 10 -5 27 -11 37 -13z m-4415 -15 c-6 -18 -28 -21 -28 -4
0 9 7 16 16 16 9 0 14 -5 12 -12z m-48 -18 c0 -11 -40 -50 -52 -50 -15 0 -8
21 10 27 9 4 21 12 25 20 9 15 17 17 17 3z m596 -27 c-4 -5 -13 -8 -19 -8 -7
-1 -11 -7 -9 -14 1 -7 -2 -10 -8 -6 -5 3 -10 2 -10 -4 0 -5 -9 -12 -19 -16
-23 -7 -36 -45 -15 -45 8 0 17 7 21 16 3 8 12 13 20 10 8 -3 11 -1 8 4 -3 6
-1 10 4 10 6 0 11 -7 11 -15 0 -8 0 -18 1 -22 0 -4 -5 -9 -12 -12 -7 -2 -9 1
-5 8 4 6 1 11 -7 11 -8 0 -22 -18 -32 -40 -20 -45 -12 -63 31 -74 20 -5 25
-12 21 -26 -3 -11 -1 -20 4 -20 5 0 9 -7 9 -15 0 -11 -7 -13 -29 -9 -25 5 -29
3 -34 -23 -4 -19 -1 -32 11 -42 15 -12 15 -12 -5 -6 -23 6 -24 5 -27 -37 -1
-7 -14 -21 -30 -31 -21 -14 -27 -24 -24 -42 3 -13 2 -26 -2 -27 -18 -8 -80
-159 -86 -211 -3 -31 -11 -61 -18 -65 -18 -12 -49 -79 -41 -92 4 -7 -1 -14
-14 -17 -13 -3 -23 -16 -27 -32 -3 -14 -10 -33 -15 -41 -5 -8 -21 -40 -36 -70
-14 -30 -31 -58 -36 -61 -5 -4 -7 -19 -3 -35 4 -16 4 -26 1 -22 -9 9 -55 -57
-61 -86 -2 -11 -8 -24 -14 -30 -5 -5 -10 -18 -10 -28 0 -10 -4 -18 -10 -18 -5
0 -10 -16 -10 -36 0 -19 -7 -43 -16 -51 -10 -10 -14 -27 -12 -45 3 -15 0 -28
-5 -28 -5 0 -6 -15 -3 -33 4 -21 1 -40 -9 -54 -8 -12 -13 -28 -10 -35 3 -8 -4
-25 -15 -38 -11 -13 -18 -30 -15 -38 3 -8 2 -19 -2 -25 -4 -7 -6 -24 -4 -39 1
-14 -2 -29 -8 -33 -6 -3 -11 -24 -11 -46 0 -26 -5 -42 -15 -45 -8 -4 -15 -12
-15 -20 0 -8 -9 -23 -21 -35 -11 -11 -18 -27 -15 -34 3 -8 1 -17 -5 -21 -5 -3
-7 -14 -4 -25 4 -11 2 -19 -5 -19 -7 0 -10 -7 -6 -15 3 -9 0 -15 -9 -15 -18 0
-18 47 0 120 7 30 19 89 25 130 7 41 16 89 20 105 5 17 12 55 15 85 12 103 74
405 110 540 20 74 43 158 50 185 25 94 55 188 79 254 13 36 27 80 31 96 4 17
12 44 20 60 22 51 84 219 91 248 6 27 5 27 -22 17 -54 -21 -103 -53 -97 -64 3
-6 3 -8 -2 -4 -4 4 -15 2 -23 -5 -13 -10 -14 -9 -8 1 5 8 61 53 126 102 83 62
137 94 182 109 34 12 70 26 78 31 18 11 67 14 56 3z m-686 -44 c0 -12 -29 -38
-42 -39 -15 0 -8 29 10 39 23 14 32 13 32 0z m-72 -52 c2 -10 -3 -17 -12 -17
-8 0 -23 -9 -33 -19 -10 -11 -30 -22 -45 -26 -16 -4 -28 -13 -28 -21 0 -7 -14
-21 -32 -30 -17 -9 -40 -25 -51 -35 -12 -10 -27 -19 -34 -19 -7 0 -18 -9 -25
-20 -7 -11 -18 -20 -24 -20 -6 0 -30 -18 -53 -40 -23 -22 -48 -40 -55 -40 -7
0 -19 -12 -27 -26 -7 -14 -24 -30 -37 -35 -17 -6 -22 -14 -18 -25 5 -14 1 -16
-26 -11 -18 3 -27 3 -20 0 19 -8 14 -23 -8 -23 -13 0 -20 -7 -20 -20 0 -26
-29 -41 -52 -26 -13 8 -21 8 -26 0 -10 -14 -58 -31 -112 -40 -24 -3 -51 -10
-60 -14 -33 -18 -89 -40 -98 -40 -5 0 -15 -7 -22 -15 -7 -8 -20 -15 -30 -15
-9 0 -25 -9 -35 -20 -11 -12 -41 -33 -67 -47 -26 -14 -48 -29 -48 -33 0 -9
-47 -30 -68 -30 -10 0 -33 -13 -52 -30 -19 -16 -43 -29 -52 -30 -9 0 -20 -5
-23 -11 -4 -6 -68 -40 -144 -76 -75 -35 -174 -83 -221 -105 -84 -41 -243 -133
-330 -192 -51 -35 -280 -260 -280 -276 0 -14 -40 -70 -64 -91 -15 -12 -19 -27
-18 -66 2 -43 -1 -51 -20 -61 -13 -6 -17 -11 -11 -11 8 -1 11 -11 7 -28 -4
-20 1 -35 16 -50 16 -18 18 -23 5 -23 -23 0 -18 -18 17 -64 59 -74 101 -116
142 -140 57 -33 234 -94 325 -111 42 -8 106 -23 144 -34 112 -33 365 -65 797
-101 197 -16 561 -26 740 -20 334 12 953 0 936 -17 -3 -3 -132 -6 -288 -8
-304 -4 -671 -21 -755 -35 -30 -5 -76 -5 -110 0 -32 5 -107 9 -166 8 -59 0
-134 3 -165 6 -31 3 -124 8 -207 12 -82 3 -153 8 -156 9 -4 3 -71 9 -239 20
-81 5 -260 33 -380 59 -36 8 -96 21 -135 29 -38 8 -90 22 -115 31 -25 10 -70
24 -100 33 -30 8 -61 19 -67 25 -7 6 -13 8 -13 4 0 -8 -106 40 -140 64 -15 11
-37 20 -48 20 -11 0 -27 7 -36 15 -8 8 -19 15 -26 15 -6 0 -16 11 -22 25 -6
14 -18 25 -26 25 -11 0 -13 -7 -7 -32 13 -58 16 -110 9 -127 -11 -25 -11 -26
-13 -108 -1 -43 -5 -73 -9 -67 -5 9 -10 8 -19 -1 -15 -17 21 -51 101 -96 l59
-33 -47 -13 c-26 -8 -49 -20 -53 -28 -6 -16 -43 -21 -43 -5 0 14 -82 -26 -93
-46 -6 -10 -11 -32 -13 -48 -4 -40 -11 -74 -19 -85 -7 -12 -17 -105 -16 -144
1 -15 -6 -35 -14 -44 -9 -8 -19 -29 -22 -45 -4 -21 -15 -33 -39 -43 -22 -9
-34 -21 -34 -33 0 -11 -7 -36 -15 -55 -17 -40 -20 -143 -5 -152 5 -3 6 -13 3
-22 -4 -11 -3 -14 5 -9 9 5 12 -6 12 -37 0 -27 6 -49 15 -57 8 -7 15 -23 15
-36 0 -24 -78 -154 -92 -154 -4 0 -8 -10 -9 -22 0 -22 -1 -22 -10 -3 -7 15 -8
8 -6 -26 1 -31 -2 -45 -9 -42 -8 3 -9 -8 -4 -34 4 -23 11 -37 19 -35 8 1 10
-4 7 -15 -3 -10 1 -31 9 -47 20 -37 19 -43 -5 -49 -26 -7 -26 -27 1 -27 16 0
9 -11 -38 -58 -32 -32 -61 -56 -64 -55 -4 2 -6 -3 -6 -10 1 -16 -12 -84 -24
-121 -5 -17 -9 -97 -10 -178 0 -94 -4 -148 -10 -148 -7 0 -8 -20 -4 -55 5 -38
4 -55 -4 -55 -6 0 -11 -11 -11 -25 0 -14 -4 -25 -10 -25 -5 0 -9 -12 -8 -28 1
-38 -10 -164 -15 -182 -30 -94 -43 -175 -28 -184 6 -4 11 -16 11 -26 0 -11 10
-38 21 -60 21 -39 59 -66 119 -85 13 -4 37 -20 53 -36 26 -26 80 -49 118 -49
9 0 22 -6 28 -14 20 -23 -6 -31 -99 -28 -88 2 -126 11 -199 46 -69 33 -81 40
-81 48 0 5 -6 8 -13 8 -7 0 -22 9 -34 19 -11 11 -38 28 -60 39 -53 27 -64 43
-65 91 0 50 32 103 95 156 l45 37 1 86 c2 105 7 129 31 135 11 3 19 13 18 23
-1 42 24 231 38 283 7 30 14 78 14 106 0 78 48 351 75 430 13 39 29 103 36
144 11 71 20 103 70 236 19 50 24 88 29 225 5 142 9 172 28 212 12 26 22 50
22 53 0 3 9 26 20 51 27 57 37 117 55 296 8 87 20 159 29 177 11 21 35 39 76
57 33 16 61 33 63 38 3 6 1 49 -4 96 -23 238 -23 275 1 347 12 37 35 86 50
108 15 22 45 67 66 100 43 65 76 101 204 217 107 96 172 148 232 184 220 134
296 179 350 208 105 56 179 96 201 110 12 7 51 29 87 48 36 19 90 49 120 66
107 60 227 124 370 195 80 40 192 103 250 140 158 102 390 247 396 247 3 0 18
10 33 21 16 12 34 18 40 15 6 -4 11 -2 11 3 0 17 40 53 53 48 7 -2 13 -11 15
-20z m811 0 c-2 -1 -13 -9 -24 -17 -19 -14 -19 -14 -6 3 7 9 18 17 24 17 6 0
8 -1 6 -3z m-541 -206 c-23 -22 -44 -38 -46 -37 -6 7 62 76 75 76 8 0 -5 -18
-29 -39z m-58 -46 c0 -8 -53 -54 -63 -55 -10 0 45 59 56 60 4 0 7 -2 7 -5z
m440 -105 c0 -5 -5 -10 -11 -10 -5 0 -7 5 -4 10 3 6 8 10 11 10 2 0 4 -4 4
-10z m66 -42 c-9 -5 -22 -7 -29 -4 -7 2 -4 5 6 5 10 1 15 5 12 11 -4 6 1 7 11
3 15 -6 15 -7 0 -15z m5265 -3 c19 -8 28 -14 22 -15 -18 0 -11 -43 7 -52 10
-4 5 -7 -13 -7 -18 -1 -26 -5 -21 -12 3 -6 17 -8 30 -5 14 4 24 2 24 -4 0 -5
-6 -10 -12 -11 -7 0 -4 -4 7 -9 13 -5 -30 -9 -115 -10 -74 -1 -155 -5 -180 -9
-25 -5 -103 -18 -175 -30 -71 -12 -183 -35 -247 -52 -143 -36 -249 -48 -528
-59 -118 -5 -231 -12 -250 -16 -25 -5 -32 -3 -25 5 24 25 288 82 425 91 135 9
184 18 250 45 37 15 323 98 376 110 23 4 41 0 65 -14 39 -24 57 -27 40 -8 -8
11 -5 13 18 9 20 -3 28 0 28 12 0 9 -4 16 -9 16 -4 0 -8 -4 -8 -10 0 -5 -4
-10 -10 -10 -5 0 -7 6 -4 14 14 37 239 60 305 31z m-344 -31 c-3 -3 -12 -4
-19 -1 -8 3 -5 6 6 6 11 1 17 -2 13 -5z m-5672 -54 c-3 -5 -14 -10 -23 -10
-15 0 -15 2 -2 10 20 13 33 13 25 0z m-25 -30 c0 -5 -4 -10 -10 -10 -8 0 -174
-162 -175 -171 -2 -9 -46 -59 -130 -145 -49 -50 -112 -117 -140 -149 -69 -79
-213 -224 -315 -318 -47 -43 -89 -82 -95 -88 -5 -5 -50 -44 -100 -86 -49 -43
-162 -148 -250 -234 -149 -147 -229 -219 -244 -219 -3 0 -21 -14 -40 -30 -37
-33 -149 -90 -175 -90 -9 0 -16 -4 -16 -10 0 -5 -11 -10 -24 -10 -19 0 -23 5
-22 27 1 23 7 28 39 35 67 14 227 103 313 174 28 24 105 96 170 161 66 65 171
165 234 223 154 142 347 334 450 450 89 101 220 231 359 358 46 42 97 92 114
110 29 31 57 42 57 22z m1185 -40 c-3 -5 -11 -10 -16 -10 -6 0 -7 5 -4 10 3 6
11 10 16 10 6 0 7 -4 4 -10z m5480 -515 c55 -13 119 -26 142 -30 22 -4 49 -13
60 -20 16 -13 3 -14 -100 -15 -66 0 -151 -7 -193 -16 -94 -19 -113 -17 -197
25 -47 23 -66 38 -63 48 3 8 1 11 -4 8 -12 -7 -14 18 -2 29 14 15 255 -5 357
-29z m-5695 -5 c0 -5 -5 -10 -11 -10 -5 0 -7 5 -4 10 3 6 8 10 11 10 2 0 4 -4
4 -10z m8121 -130 c20 -6 52 -20 70 -33 29 -19 34 -29 37 -67 4 -60 -21 -112
-66 -138 -59 -32 -237 -46 -504 -39 -263 8 -297 17 -336 86 -26 46 -27 69 -6
114 32 68 127 82 559 85 116 1 226 -3 246 -8z m-1977 -404 c6 -1 22 -9 36 -19
23 -16 23 -17 4 -17 -11 0 -24 3 -28 8 -4 4 -26 15 -49 25 -40 16 -40 17 -8
11 18 -3 39 -7 45 -8z m-7021 -333 c2 -5 -3 -20 -12 -35 l-17 -27 -1 35 c-1
22 4 34 12 34 8 0 16 -3 18 -7z m1447 -39 c0 -2 -12 -4 -26 -4 -14 0 -23 4
-20 9 6 8 46 4 46 -5z m-80 -3 c3 -1 -4 -8 -15 -17 -18 -13 -9 -15 96 -13 117
2 150 -4 130 -24 -7 -7 -5 -14 7 -24 15 -13 15 -13 -5 -3 -13 6 -20 16 -17 24
5 12 -8 14 -73 9 -123 -7 -147 -10 -163 -16 -21 -8 -71 -18 -97 -20 -11 -1
-19 -5 -17 -9 2 -4 0 -9 -6 -13 -14 -9 -12 19 2 33 14 14 -71 10 -204 -9 -37
-5 -88 -9 -115 -8 -42 0 -45 2 -23 10 13 6 45 12 70 14 25 2 45 5 45 6 0 1 55
7 123 13 69 6 122 15 122 21 -1 6 -9 9 -18 8 -9 -1 -24 1 -32 5 -21 9 158 22
190 13z m130 5 c0 -11 -19 -15 -25 -6 -3 5 1 10 9 10 9 0 16 -2 16 -4z m-357
-23 c-7 -2 -21 -2 -30 0 -10 3 -4 5 12 5 17 0 24 -2 18 -5z m-2983 -7 c0 -3
-4 -8 -10 -11 -5 -3 -10 -1 -10 4 0 6 5 11 10 11 6 0 10 -2 10 -4z m3565 -24
c17 -10 13 -11 -30 -8 -27 3 -56 5 -62 5 -7 1 -13 5 -13 9 0 13 82 8 105 -6z
m91 -3 c3 -5 -9 -9 -25 -9 -17 0 -31 4 -31 9 0 5 11 9 25 9 14 0 28 -4 31 -9z
m34 -9 c0 -5 -4 -10 -10 -10 -5 0 -10 5 -10 10 0 6 5 10 10 10 6 0 10 -4 10
-10z m-430 -26 c0 -2 -9 -4 -21 -4 -11 0 -18 4 -14 10 5 8 35 3 35 -6z m40 6
c0 -5 -7 -10 -16 -10 -8 0 -12 5 -9 10 3 6 10 10 16 10 5 0 9 -4 9 -10z m80 0
c0 -5 -9 -10 -20 -10 -11 0 -20 5 -20 10 0 6 9 10 20 10 11 0 20 -4 20 -10z
m120 -6 c0 -2 -9 -4 -21 -4 -11 0 -18 4 -14 10 5 8 35 3 35 -6z m80 5 c0 -11
-37 -12 -43 -1 -3 4 6 8 19 8 13 1 24 -2 24 -7z m-560 -18 c0 -8 -3 -11 -7 -8
-3 4 -12 2 -20 -4 -10 -9 -13 -7 -13 9 0 15 6 20 20 19 11 -1 20 -8 20 -16z
m-120 -6 c0 -8 -9 -15 -20 -15 -22 0 -27 15 -7 23 21 9 27 7 27 -8z m60 2 c0
-7 -9 -13 -20 -13 -11 0 -20 6 -20 13 0 7 9 13 20 13 11 0 20 -6 20 -13z m737
7 c-3 -3 -12 -4 -19 -1 -8 3 -5 6 6 6 11 1 17 -2 13 -5z m-873 -24 c-22 -9
-29 -6 -20 9 4 6 14 7 23 4 15 -6 14 -7 -3 -13z m-64 0 c0 -5 -5 -10 -11 -10
-5 0 -7 5 -4 10 3 6 8 10 11 10 2 0 4 -4 4 -10z m-65 -144 c11 -2 -13 -4 -52
-5 -40 0 -73 2 -73 7 0 6 79 5 125 -2z m-2004 -271 c569 -31 740 -37 1164 -44
242 -4 370 -9 285 -10 -232 -5 -258 -6 -266 -14 -4 -4 -72 -7 -151 -7 -112 0
-143 3 -138 13 4 6 0 4 -8 -6 -11 -14 -27 -18 -64 -16 -26 1 -52 1 -58 -1 -5
-2 -21 0 -35 3 -27 7 -343 26 -540 33 -222 8 -450 30 -450 45 0 4 -15 10 -32
12 l-33 4 31 1 c17 1 150 -5 295 -13z m-1834 -1967 c-3 -8 -6 -5 -6 6 -1 11 2
17 5 13 3 -3 4 -12 1 -19z m11929 -152 c19 -21 21 -33 17 -93 -11 -163 -31
-211 -80 -192 -18 6 -23 5 -23 -6 0 -22 -9 -18 -32 11 -11 14 -38 32 -59 41
-22 8 -39 20 -39 27 0 6 -5 18 -10 26 -9 13 -11 13 -20 0 -7 -11 -10 5 -11 55
-2 63 -3 66 -8 25 l-6 -45 -8 43 c-5 30 -11 41 -20 36 -6 -4 -9 -4 -5 1 4 4 3
15 -2 25 -13 24 26 72 41 50 7 -12 11 -13 18 -2 9 15 127 32 186 27 27 -3 47
-12 61 -29z"/>
<path d="M6560 9600 c0 -5 10 -12 23 -16 12 -3 34 -15 49 -25 14 -11 36 -19
47 -19 12 0 21 -4 21 -10 0 -5 5 -10 10 -10 19 0 9 15 -25 38 -19 12 -44 22
-54 22 -11 0 -22 4 -25 9 -8 12 -46 21 -46 11z"/>
<path d="M6472 9516 c13 -14 28 -12 28 5 0 5 -9 9 -20 9 -17 0 -19 -2 -8 -14z"/>
<path d="M6585 9501 c-6 -11 42 -27 52 -17 8 8 3 12 -24 20 -12 4 -24 2 -28
-3z"/>
<path d="M5980 9470 c8 -5 24 -9 35 -9 l20 0 -20 9 c-11 5 -27 9 -35 9 -13 1
-13 0 0 -9z"/>
<path d="M6250 9391 c0 -5 16 -11 35 -13 24 -3 35 0 35 9 0 8 -13 13 -35 13
-19 0 -35 -4 -35 -9z"/>
<path d="M6340 9390 c0 -5 6 -10 14 -10 8 0 18 5 21 10 3 6 -3 10 -14 10 -12
0 -21 -4 -21 -10z"/>
<path d="M5405 8549 c-4 -6 -2 -15 5 -19 24 -15 -26 -30 -67 -20 -5 1 1 5 12
10 17 7 15 9 -12 9 -17 1 -35 -3 -38 -9 -7 -11 -21 -12 -120 -10 -38 1 -75 6
-82 11 -17 15 -51 2 -58 -22 -4 -10 -14 -19 -23 -19 -10 0 -23 -9 -30 -20 -7
-12 -18 -18 -25 -15 -7 4 4 -7 23 -24 50 -43 132 -68 175 -52 36 13 133 13
141 -1 7 -11 44 -10 44 2 0 6 5 10 11 10 5 0 7 -4 4 -10 -3 -5 -1 -10 4 -10 6
0 11 6 11 13 0 8 4 7 10 -3 5 -8 10 -10 10 -3 0 11 12 11 40 0 8 -3 30 -10 49
-15 19 -4 36 -14 39 -22 3 -13 2 -13 -7 0 -8 10 -11 11 -11 2 0 -7 11 -18 25
-24 20 -9 22 -14 13 -25 -6 -8 -17 -12 -25 -9 -16 6 -232 -30 -283 -47 -19 -6
-57 -24 -83 -39 -26 -16 -52 -28 -57 -28 -5 0 -11 -8 -14 -18 -3 -10 -25 -36
-48 -57 -38 -37 -40 -40 -20 -43 26 -4 29 -17 7 -26 -12 -4 -13 -11 -7 -23 5
-10 7 -24 5 -30 -7 -19 17 -16 87 13 58 23 66 24 114 13 28 -7 56 -16 61 -20
6 -3 26 -9 45 -13 19 -3 46 -8 60 -11 14 -3 44 -6 68 -6 23 -1 45 -5 47 -9 8
-13 -24 -20 -50 -10 -15 6 -27 6 -30 0 -3 -5 -13 -6 -22 -3 -16 6 -55 7 -85 3
-16 -2 120 -48 145 -49 9 -1 17 -8 17 -16 0 -8 9 -15 20 -15 11 0 20 -4 20 -9
0 -11 -25 -21 -51 -21 -13 0 -19 -6 -17 -17 3 -15 -5 -18 -44 -18 -27 0 -48
-3 -48 -6 0 -4 -12 -10 -27 -13 -24 -7 -25 -9 -11 -23 11 -11 43 -17 105 -20
95 -5 194 12 261 46 82 41 100 52 112 66 7 8 18 15 25 15 8 0 15 3 17 8 2 4
19 21 38 37 19 17 36 38 38 47 2 14 -4 16 -34 11 -28 -5 -35 -3 -30 6 5 7 23
11 44 9 25 -2 37 2 40 12 6 19 38 50 51 50 5 0 16 -9 24 -21 20 -28 29 -7 42
99 5 36 2 45 -12 48 -20 6 -63 62 -63 83 0 11 -3 11 -15 1 -21 -18 -27 -8 -15
25 6 15 20 29 31 32 15 4 19 11 15 27 -4 15 1 26 14 34 24 15 27 37 4 28 -11
-4 -15 -2 -11 7 3 7 -1 21 -9 32 -11 15 -17 16 -26 7 -9 -9 -8 -12 4 -12 9 0
20 -5 24 -11 11 -18 -38 1 -58 22 -22 22 -23 29 -2 29 14 0 14 2 0 15 -8 8
-17 15 -20 15 -3 0 -3 -7 0 -15 4 -8 1 -15 -5 -15 -14 0 -32 35 -23 45 4 4 -3
6 -15 3 -27 -7 -113 10 -113 22 0 5 -65 8 -145 7 -98 -1 -148 2 -153 9 -11 18
-49 26 -57 13z m-228 -55 c-3 -3 -12 -4 -19 -1 -8 3 -5 6 6 6 11 1 17 -2 13
-5z m-77 -34 c0 -13 -11 -13 -30 0 -12 8 -11 10 8 10 12 0 22 -4 22 -10z m-75
-30 c-3 -5 -10 -10 -16 -10 -5 0 -9 5 -9 10 0 6 7 10 16 10 8 0 12 -4 9 -10z
m892 -182 c-3 -8 -6 -5 -6 6 -1 11 2 17 5 13 3 -3 4 -12 1 -19z m-417 -18 c0
-5 -11 -12 -25 -16 -14 -3 -25 -10 -25 -16 0 -5 -4 -7 -9 -4 -5 4 -22 1 -38
-6 -15 -6 -37 -13 -48 -14 -11 -1 -33 -10 -50 -18 -16 -9 -35 -16 -41 -16 -6
0 -21 -9 -34 -20 -22 -19 -79 -40 -109 -40 -8 0 2 17 25 40 52 54 151 99 244
114 52 7 110 6 110 -4z m-153 -208 c9 -20 19 -40 21 -44 7 -14 -39 -9 -73 8
-54 25 -55 68 -2 76 30 5 35 2 54 -40z"/>
<path d="M5538 8533 c7 -3 16 -2 19 1 4 3 -2 6 -13 5 -11 0 -14 -3 -6 -6z"/>
<path d="M4955 8370 c8 -13 35 -13 55 0 11 7 5 10 -23 10 -23 0 -36 -4 -32
-10z"/>
<path d="M6640 7470 c0 -6 4 -10 9 -10 5 0 11 -9 14 -21 3 -12 10 -18 17 -14
15 9 70 -28 110 -74 18 -23 38 -41 42 -41 17 0 -37 82 -67 104 -43 31 -125 68
-125 56z"/>
<path d="M5903 7150 c-35 -21 -57 -55 -48 -71 4 -6 58 -9 145 -7 77 1 142 -1
146 -5 12 -12 34 -8 34 6 0 24 -56 68 -105 83 -67 20 -134 18 -172 -6z"/>
<path d="M5850 7027 c0 -15 52 -56 83 -66 19 -7 55 -8 89 -3 48 6 55 9 45 22
-26 33 -100 60 -159 57 -32 -1 -58 -6 -58 -10z"/>
<path d="M6180 7021 c0 -5 -22 -12 -50 -16 -49 -7 -64 -20 -35 -31 8 -4 13
-10 10 -14 -8 -13 58 -18 83 -7 22 10 27 31 16 61 -7 17 -24 22 -24 7z"/>
<path d="M5830 5905 c0 -5 5 -17 10 -25 5 -8 10 -10 10 -5 0 6 -5 17 -10 25
-5 8 -10 11 -10 5z"/>
<path d="M7275 8330 c-3 -5 1 -10 9 -10 9 0 16 5 16 10 0 6 -4 10 -9 10 -6 0
-13 -4 -16 -10z"/>
<path d="M4236 5263 c-6 -14 -5 -15 5 -6 7 7 10 15 7 18 -3 3 -9 -2 -12 -12z"/>
<path d="M8868 4813 c6 -2 18 -2 25 0 6 3 1 5 -13 5 -14 0 -19 -2 -12 -5z"/>
<path d="M8894 4791 c4 -5 3 -11 -1 -14 -5 -2 -2 -2 5 0 8 1 21 3 30 4 14 0
13 2 -3 9 -27 12 -37 12 -31 1z"/>
<path d="M8800 4750 c0 -5 5 -10 11 -10 5 0 7 5 4 10 -3 6 -8 10 -11 10 -2 0
-4 -4 -4 -10z"/>
<path d="M7465 11171 l-50 -6 58 -8 c60 -9 197 0 232 14 23 9 -164 9 -240 0z"/>
<path d="M7280 11153 c-25 -1 -97 -8 -160 -14 -63 -5 -149 -12 -190 -15 -86
-6 -104 -10 -96 -23 12 -19 151 -33 280 -29 138 6 166 11 166 34 0 10 13 12
52 10 57 -4 78 1 57 15 -12 8 -11 11 1 19 15 10 -7 11 -110 3z"/>
<path d="M5828 11033 c6 -2 18 -2 25 0 6 3 1 5 -13 5 -14 0 -19 -2 -12 -5z"/>
<path d="M6868 11023 c7 -3 16 -2 19 1 4 3 -2 6 -13 5 -11 0 -14 -3 -6 -6z"/>
<path d="M5965 10950 c3 -5 12 -7 20 -3 9 3 15 -1 15 -11 0 -9 7 -16 15 -16
21 0 19 17 -4 30 -25 13 -54 13 -46 0z"/>
<path d="M6076 10946 c3 -8 26 -22 52 -31 26 -10 51 -22 57 -26 5 -5 17 -9 27
-9 17 0 17 2 5 27 -10 19 -28 30 -63 39 -65 17 -85 17 -78 0z"/>
<path d="M6240 10934 c0 -8 5 -12 10 -9 6 4 8 11 5 16 -9 14 -15 11 -15 -7z"/>
<path d="M5325 10922 c-63 -25 -83 -53 -48 -66 10 -4 22 -1 28 7 5 7 17 17 25
21 50 24 60 33 48 44 -9 7 -25 5 -53 -6z"/>
<path d="M5960 10920 c0 -5 5 -10 10 -10 6 0 10 5 10 10 0 6 -4 10 -10 10 -5
0 -10 -4 -10 -10z"/>
<path d="M5396 10871 c-3 -5 1 -14 9 -21 12 -10 21 -10 41 -1 14 6 22 16 19
21 -8 12 -62 13 -69 1z"/>
<path d="M5484 10861 c4 -6 14 -11 22 -11 8 0 14 -6 13 -12 -3 -25 1 -38 12
-38 6 0 7 6 2 12 -4 7 -7 22 -8 33 0 13 -8 21 -24 23 -15 2 -21 0 -17 -7z"/>
<path d="M5210 10835 c-7 -9 -10 -19 -6 -22 8 -9 38 9 44 25 5 17 -23 15 -38
-3z"/>
<path d="M5040 10830 c0 -5 7 -10 15 -10 8 0 15 5 15 10 0 6 -7 10 -15 10 -8
0 -15 -4 -15 -10z"/>
<path d="M5442 10815 c-11 -13 -9 -15 13 -15 16 0 25 5 23 12 -6 18 -21 19
-36 3z"/>
<path d="M5157 10793 c-13 -12 -7 -33 8 -33 8 0 15 9 15 20 0 20 -11 26 -23
13z"/>
<path d="M4972 10745 c-17 -14 -40 -25 -51 -25 -12 0 -25 -8 -28 -17 -4 -10
-13 -24 -20 -32 -8 -7 -12 -18 -11 -23 2 -5 -18 -31 -44 -57 -48 -48 -59 -71
-35 -71 15 0 87 58 85 68 -4 13 30 67 61 96 17 17 31 26 31 23 0 -4 9 -3 20 3
11 6 19 15 17 20 -1 5 7 16 18 24 17 13 18 15 3 16 -9 0 -30 -11 -46 -25z"/>
<path d="M5105 10740 c-3 -5 -1 -10 4 -10 6 0 11 5 11 10 0 6 -2 10 -4 10 -3
0 -8 -4 -11 -10z"/>
<path d="M4845 10730 c-3 -5 -1 -10 4 -10 6 0 11 5 11 10 0 6 -2 10 -4 10 -3
0 -8 -4 -11 -10z"/>
<path d="M9422 10714 c-15 -16 -62 -19 -62 -4 0 17 -32 11 -46 -7 -10 -14 -31
-19 -103 -21 -86 -4 -111 -12 -75 -26 9 -4 31 -4 48 -1 17 2 68 7 114 10 100
6 162 21 162 39 0 20 -23 26 -38 10z"/>
<path d="M5017 10714 c-3 -4 -4 -11 -1 -15 7 -12 54 -11 54 1 0 6 -4 10 -9 10
-5 0 -16 2 -23 5 -8 3 -17 3 -21 -1z"/>
<path d="M4811 10691 c-7 -5 -11 -15 -9 -22 3 -10 8 -7 17 9 13 24 12 26 -8
13z"/>
<path d="M8855 10650 c-3 -5 1 -10 9 -10 9 0 16 5 16 10 0 6 -4 10 -9 10 -6 0
-13 -4 -16 -10z"/>
<path d="M8391 9774 c0 -11 3 -14 6 -6 3 7 2 16 -1 19 -3 4 -6 -2 -5 -13z"/>
<path d="M8405 9749 c-11 -16 -1 -19 13 -3 7 8 8 14 3 14 -5 0 -13 -5 -16 -11z"/>
<path d="M8350 9700 c0 -5 5 -10 10 -10 6 0 10 5 10 10 0 6 -4 10 -10 10 -5 0
-10 -4 -10 -10z"/>
</g>
</svg>
