<svg width="59" height="327" viewBox="0 0 59 327" fill="none" xmlns="http://www.w3.org/2000/svg">
<g clip-path="url(#clip0_96_1401)">
<g filter="url(#filter0_f_96_1401)">
<circle cx="42" cy="164" r="7" fill="#D3D3D3"/>
</g>
<path d="M1.35949 0L1.35941 22.5993C1.35935 41.1311 8.38113 58.9828 21.026 72.598C33.6708 86.2141 40.6926 104.066 40.6926 122.597V203.391C40.6926 222.125 33.6824 240.189 21.026 254.068C8.36967 267.947 1.35946 286.012 1.35942 304.746L1.35938 327" stroke="url(#paint0_linear_96_1401)" stroke-width="2.79309"/>
<g filter="url(#filter1_diii_96_1401)">
<path d="M40.9832 159.201C43.3945 159.201 45.3493 161.145 45.3493 163.542C45.3493 165.939 43.3945 167.883 40.9832 167.883C38.5719 167.883 36.6172 165.939 36.6172 163.542C36.6172 161.145 38.5719 159.201 40.9832 159.201Z" fill="black"/>
<path d="M40.9816 160.216C42.8311 160.216 44.3304 161.707 44.3304 163.546C44.3304 165.384 42.8311 166.875 40.9816 166.875C39.1321 166.875 37.6328 165.384 37.6328 163.546C37.6328 161.707 39.1321 160.216 40.9816 160.216Z" stroke="white" stroke-width="2.79309"/>
</g>
</g>
<defs>
<filter id="filter0_f_96_1401" x="25" y="147" width="34" height="34" filterUnits="userSpaceOnUse" color-interpolation-filters="sRGB">
<feFlood flood-opacity="0" result="BackgroundImageFix"/>
<feBlend mode="normal" in="SourceGraphic" in2="BackgroundImageFix" result="shape"/>
<feGaussianBlur stdDeviation="5" result="effect1_foregroundBlur_96_1401"/>
</filter>
<filter id="filter1_diii_96_1401" x="22.2689" y="144.855" width="37.4231" height="37.3841" filterUnits="userSpaceOnUse" color-interpolation-filters="sRGB">
<feFlood flood-opacity="0" result="BackgroundImageFix"/>
<feColorMatrix in="SourceAlpha" type="matrix" values="0 0 0 0 0 0 0 0 0 0 0 0 0 0 0 0 0 0 127 0" result="hardAlpha"/>
<feOffset/>
<feGaussianBlur stdDeviation="6.98273"/>
<feComposite in2="hardAlpha" operator="out"/>
<feColorMatrix type="matrix" values="0 0 0 0 0.337255 0 0 0 0 0.827451 0 0 0 0 0.395098 0 0 0 1 0"/>
<feBlend mode="normal" in2="BackgroundImageFix" result="effect1_dropShadow_96_1401"/>
<feBlend mode="normal" in="SourceGraphic" in2="effect1_dropShadow_96_1401" result="shape"/>
<feColorMatrix in="SourceAlpha" type="matrix" values="0 0 0 0 0 0 0 0 0 0 0 0 0 0 0 0 0 0 127 0" result="hardAlpha"/>
<feOffset/>
<feGaussianBlur stdDeviation="6.98273"/>
<feComposite in2="hardAlpha" operator="arithmetic" k2="-1" k3="1"/>
<feColorMatrix type="matrix" values="0 0 0 0 0.337255 0 0 0 0 0.827451 0 0 0 0 0.392157 0 0 0 1 0"/>
<feBlend mode="normal" in2="shape" result="effect2_innerShadow_96_1401"/>
<feColorMatrix in="SourceAlpha" type="matrix" values="0 0 0 0 0 0 0 0 0 0 0 0 0 0 0 0 0 0 127 0" result="hardAlpha"/>
<feOffset/>
<feGaussianBlur stdDeviation="9.31031"/>
<feComposite in2="hardAlpha" operator="arithmetic" k2="-1" k3="1"/>
<feColorMatrix type="matrix" values="0 0 0 0 0.337255 0 0 0 0 0.827451 0 0 0 0 0.392157 0 0 0 1 0"/>
<feBlend mode="normal" in2="effect2_innerShadow_96_1401" result="effect3_innerShadow_96_1401"/>
<feColorMatrix in="SourceAlpha" type="matrix" values="0 0 0 0 0 0 0 0 0 0 0 0 0 0 0 0 0 0 127 0" result="hardAlpha"/>
<feOffset/>
<feGaussianBlur stdDeviation="2.32758"/>
<feComposite in2="hardAlpha" operator="arithmetic" k2="-1" k3="1"/>
<feColorMatrix type="matrix" values="0 0 0 0 0.337255 0 0 0 0 0.827451 0 0 0 0 0.392157 0 0 0 1 0"/>
<feBlend mode="normal" in2="effect3_innerShadow_96_1401" result="effect4_innerShadow_96_1401"/>
</filter>
<linearGradient id="paint0_linear_96_1401" x1="16.2789" y1="2.98229e-09" x2="15.2734" y2="327" gradientUnits="userSpaceOnUse">
<stop offset="0.0515742" stop-color="#04B1D9" stop-opacity="0"/>
<stop offset="0.225992" stop-color="#04B1D9"/>
<stop offset="0.47249" stop-color="#04B1D9"/>
<stop offset="0.522324" stop-color="#04B1D9"/>
<stop offset="0.561417" stop-color="#04B1D9"/>
<stop offset="0.791714" stop-color="#04B1D9"/>
<stop offset="0.956186" stop-color="#04B1D9" stop-opacity="0"/>
</linearGradient>
<clipPath id="clip0_96_1401">
<rect width="59" height="327" fill="white"/>
</clipPath>
</defs>
</svg>
